<svg xmlns="http://www.w3.org/2000/svg" version="1.1" xmlns:xlink="http://www.w3.org/1999/xlink" xmlns:svgjs="http://svgjs.dev/svgjs" width="1500" height="859" viewBox="0 0 1500 859"><g transform="matrix(1,0,0,1,-0.9090909090909918,0.2142430710523513)"><svg viewBox="0 0 396 227" data-background-color="#ffffff" preserveAspectRatio="xMidYMid meet" height="859" width="1500" xmlns="http://www.w3.org/2000/svg" xmlns:xlink="http://www.w3.org/1999/xlink"><g id="tight-bounds" transform="matrix(1,0,0,1,0.2400000000000091,-0.05661603856680131)"><svg viewBox="0 0 395.52 227.1132320771336" height="227.1132320771336" width="395.52"><g><svg viewBox="0 0 395.52 227.1132320771336" height="227.1132320771336" width="395.52"><g transform="matrix(1,0,0,1,0,140.36508875465802)"><svg viewBox="0 0 395.52 86.74814332247558" height="86.74814332247558" width="395.52"><g id="textblocktransform"><svg viewBox="0 0 395.52 86.74814332247558" height="86.74814332247558" width="395.52" id="textblock"><g><svg viewBox="0 0 395.52 86.74814332247558" height="86.74814332247558" width="395.52"><g transform="matrix(1,0,0,1,0,0)"><svg width="395.52" viewBox="3 -39.65 184.18 40.4" height="86.74814332247558" data-palette-color="#25ebeb"><path d="M24.6-34.55L24.6 0 16.5 0 7.75-28.3Q8.15-24.7 8.38-21.68 8.6-18.65 8.6-14.5L8.6-14.5 8.6 0 3 0 3-34.55 11.05-34.55 19.8-6.25Q19.5-8.05 19.23-11.35 18.95-14.65 18.95-18.05L18.95-18.05 18.95-34.55 24.6-34.55ZM47.35-6.4Q47.35-5.1 47.7-4.48 48.05-3.85 48.85-3.45L48.85-3.45 47.6 0.65Q45.55 0.4 44.32-0.45 43.1-1.3 42.5-3.05L42.5-3.05Q40.2 0.75 36.05 0.75L36.05 0.75Q32.75 0.75 30.8-1.48 28.85-3.7 28.85-7.4L28.85-7.4Q28.85-11.7 31.52-13.95 34.2-16.2 39.3-16.2L39.3-16.2 41.35-16.2 41.35-18.05Q41.35-20.55 40.47-21.58 39.6-22.6 37.65-22.6L37.65-22.6Q35.3-22.6 31.8-21.3L31.8-21.3 30.4-25.3Q32.4-26.2 34.55-26.68 36.7-27.15 38.65-27.15L38.65-27.15Q47.35-27.15 47.35-18.35L47.35-18.35 47.35-6.4ZM37.7-3.7Q40.1-3.7 41.35-7L41.35-7 41.35-12.55 39.9-12.55Q37.35-12.55 36.17-11.4 35-10.25 35-7.85L35-7.85Q35-5.8 35.7-4.75 36.4-3.7 37.7-3.7L37.7-3.7ZM71.3-26.45L71.3 0 65.95 0 65.65-3.35Q64.4-1.3 62.84-0.28 61.3 0.75 59.25 0.75L59.25 0.75Q56.34 0.75 54.67-1.3 53-3.35 53-6.65L53-6.65 53-26.45 59.15-26.45 59.15-7Q59.15-3.9 61.25-3.9L61.25-3.9Q62.45-3.9 63.4-4.83 64.34-5.75 65.15-7.45L65.15-7.45 65.15-26.45 71.3-26.45ZM88.14-5L90.29-1.2Q87.84 0.75 84.54 0.75L84.54 0.75Q81.09 0.75 79.29-1.23 77.49-3.2 77.49-6.6L77.49-6.6 77.49-22 74.39-22 74.39-26.45 77.49-26.45 77.49-32.3 83.64-33.05 83.64-26.45 88.64-26.45 88.04-22 83.64-22 83.64-6.6Q83.64-4.2 85.69-4.2L85.69-4.2Q86.34-4.2 86.84-4.38 87.34-4.55 88.14-5L88.14-5ZM92.84-26.45L98.99-26.45 98.99 0 92.84 0 92.84-26.45ZM95.89-39.65Q97.54-39.65 98.57-38.6 99.59-37.55 99.59-35.9L99.59-35.9Q99.59-34.3 98.57-33.25 97.54-32.2 95.89-32.2L95.89-32.2Q94.24-32.2 93.22-33.25 92.19-34.3 92.19-35.9L92.19-35.9Q92.19-37.55 93.22-38.6 94.24-39.65 95.89-39.65L95.89-39.65ZM102.24-34.55L123.79-34.55 123.09-29.55 115.99-29.55 115.99 0 109.64 0 109.64-29.55 102.24-29.55 102.24-34.55ZM138.34-27.1Q139.49-27.1 140.39-26.75L140.39-26.75 139.39-20.85Q138.39-21.1 137.53-21.1L137.53-21.1Q135.64-21.1 134.53-19.45 133.44-17.8 132.84-14.55L132.84-14.55 132.84 0 126.69 0 126.69-26.45 132.03-26.45 132.49-21.85Q134.34-27.1 138.34-27.1L138.34-27.1ZM160.13-6.4Q160.13-5.1 160.48-4.48 160.83-3.85 161.63-3.45L161.63-3.45 160.38 0.65Q158.33 0.4 157.11-0.45 155.88-1.3 155.28-3.05L155.28-3.05Q152.98 0.75 148.83 0.75L148.83 0.75Q145.53 0.75 143.58-1.48 141.63-3.7 141.63-7.4L141.63-7.4Q141.63-11.7 144.31-13.95 146.98-16.2 152.08-16.2L152.08-16.2 154.13-16.2 154.13-18.05Q154.13-20.55 153.26-21.58 152.38-22.6 150.43-22.6L150.43-22.6Q148.08-22.6 144.58-21.3L144.58-21.3 143.18-25.3Q145.18-26.2 147.33-26.68 149.48-27.15 151.43-27.15L151.43-27.15Q160.13-27.15 160.13-18.35L160.13-18.35 160.13-6.4ZM150.48-3.7Q152.88-3.7 154.13-7L154.13-7 154.13-12.55 152.68-12.55Q150.13-12.55 148.96-11.4 147.78-10.25 147.78-7.85L147.78-7.85Q147.78-5.8 148.48-4.75 149.18-3.7 150.48-3.7L150.48-3.7ZM165.93-26.45L172.08-26.45 172.08 0 165.93 0 165.93-26.45ZM168.98-39.65Q170.63-39.65 171.66-38.6 172.68-37.55 172.68-35.9L172.68-35.9Q172.68-34.3 171.66-33.25 170.63-32.2 168.98-32.2L168.98-32.2Q167.33-32.2 166.31-33.25 165.28-34.3 165.28-35.9L165.28-35.9Q165.28-37.55 166.31-38.6 167.33-39.65 168.98-39.65L168.98-39.65ZM183.38 0.75Q180.68 0.75 179.1-0.93 177.53-2.6 177.53-5.4L177.53-5.4 177.53-37.05 183.68-37.7 183.68-5.65Q183.68-5 183.98-4.6 184.28-4.2 184.88-4.2L184.88-4.2Q185.23-4.2 185.55-4.3 185.88-4.4 185.98-4.4L185.98-4.4 187.18-0.2Q185.48 0.75 183.38 0.75L183.38 0.75Z" opacity="1" transform="matrix(1,0,0,1,0,0)" fill="#25ebeb" class="wordmark-text-0" data-fill-palette-color="primary" id="text-0"></path></svg></g></svg></g></svg></g></svg></g><g transform="matrix(1,0,0,1,137.81703296416936,0)"><svg viewBox="0 0 119.88593407166127 119.88593407166127" height="119.88593407166127" width="119.88593407166127"><g><svg></svg></g><g id="icon-0"><svg viewBox="0 0 119.88593407166127 119.88593407166127" height="119.88593407166127" width="119.88593407166127"><g><path transform="scale(1.19886,1.19886)" d="M30 100c-16.569 0-30-13.431-30-30v-40c0-16.569 13.431-30 30-30h40c16.569 0 30 13.431 30 30v40c0 16.569-13.431 30-30 30z" fill="#25ebeb" fill-rule="nonzero" stroke="none" stroke-width="1" stroke-linecap="butt" stroke-linejoin="miter" stroke-miterlimit="10" stroke-dasharray="" stroke-dashoffset="0" font-family="none" font-weight="none" font-size="none" text-anchor="none" style="mix-blend-mode: normal" data-fill-palette-color="accent"></path></g><g transform="matrix(1,0,0,1,23.977186814332256,23.977186814332256)"><svg viewBox="0 0 71.93156044299676 71.93156044299676" height="71.93156044299676" width="71.93156044299676"><g><svg xmlns="http://www.w3.org/2000/svg" xmlns:xlink="http://www.w3.org/1999/xlink" version="1.1" x="0" y="0" viewBox="1 1 88 88" enable-background="new 0 0 90 90" xml:space="preserve" height="71.93156044299676" width="71.93156044299676" class="icon-dxe-0" data-fill-palette-color="quaternary" id="dxe-0"><g fill="#000000" data-fill-palette-color="quaternary"><path d="M45 89C20.7 89 1 69.3 1 45S20.7 1 45 1 89 20.7 89 45 69.3 89 45 89M45 4C22.4 4 4 22.4 4 45S22.4 86 45 86 86 67.6 86 45 67.6 4 45 4M44.5 70.3C42.4 70.3 40.6 69 40 67L36.6 56.2C36.4 55.7 36 55.2 35.5 55.1L24.7 51.7C22.8 51.1 21.5 49.5 21.4 47.5S22.3 43.7 24.1 42.9L59.2 26.2C61.3 25.2 64 26 65.2 28 66.1 29.4 66.2 31 65.5 32.5L48.8 67.6C48 69.3 46.4 70.3 44.5 70.3M61.2 28.8C60.9 28.8 60.7 28.9 60.4 29L25.4 45.6C24.4 46.1 24.4 47 24.4 47.3S24.6 48.5 25.6 48.8L36.4 52.2C37.9 52.7 39 53.8 39.5 55.3L42.9 66.1C43.2 67 43.9 67.3 44.6 67.3 44.9 67.3 45.7 67.2 46.2 66.3L62.9 31.2C63.3 30.4 63 29.8 62.8 29.6 62.3 29.1 61.8 28.8 61.2 28.8" fill="#000000" data-fill-palette-color="quaternary"></path></g></svg></g></svg></g></svg></g></svg></g><g></g></svg></g><defs></defs></svg><rect width="395.52" height="227.1132320771336" fill="none" stroke="none" visibility="hidden"></rect></g></svg></g></svg>